<?xml version="1.0" encoding="UTF-8"?>
<!DOCTYPE svg PUBLIC "-//W3C//DTD SVG 1.1//EN" "http://www.w3.org/Graphics/SVG/1.1/DTD/svg11.dtd">
<svg xmlns="http://www.w3.org/2000/svg" version="1.1" width="1080px" height="540px" style="shape-rendering:geometricPrecision; text-rendering:geometricPrecision; image-rendering:optimizeQuality; fill-rule:evenodd; clip-rule:evenodd" xmlns:xlink="http://www.w3.org/1999/xlink">
<g><path style="opacity:1" fill="#fefefe" d="M -0.5,-0.5 C 359.5,-0.5 719.5,-0.5 1079.5,-0.5C 1079.5,179.5 1079.5,359.5 1079.5,539.5C 719.5,539.5 359.5,539.5 -0.5,539.5C -0.5,359.5 -0.5,179.5 -0.5,-0.5 Z"/></g>
<g><path style="opacity:1" fill="#2295fd" d="M 445.5,123.5 C 445.565,126.428 446.232,129.095 447.5,131.5C 448.314,133.631 448.814,135.964 449,138.5C 449.667,225.167 449.667,311.833 449,398.5C 439.275,445.726 410.442,471.726 362.5,476.5C 284.681,477.072 206.681,476.405 128.5,474.5C 120.437,475.79 112.437,475.456 104.5,473.5C 103.5,473.5 102.5,473.5 101.5,473.5C 99.2842,472.184 97.2842,470.517 95.5,468.5C 94.2638,469.246 92.9305,469.579 91.5,469.5C 67.6887,459.187 51.1887,441.854 42,417.5C 39.5837,410.004 37.917,402.338 37,394.5C 36.3333,309.167 36.3333,223.833 37,138.5C 43.3495,104.146 62.8495,80.6455 95.5,68C 99.447,66.846 103.447,66.0127 107.5,65.5C 110.152,65.5905 112.485,64.9238 114.5,63.5C 195.482,62.3474 276.482,62.1808 357.5,63C 392.646,63.5761 419.813,78.4094 439,107.5C 442.015,112.525 444.182,117.858 445.5,123.5 Z"/></g>
<g><path style="opacity:1" fill="#74b4e8" d="M 114.5,63.5 C 112.485,64.9238 110.152,65.5905 107.5,65.5C 109.515,64.0762 111.848,63.4095 114.5,63.5 Z"/></g>
<g><path style="opacity:1" fill="#fdfefe" d="M 413.5,239.5 C 414.299,252.484 414.633,265.484 414.5,278.5C 413.763,289.327 412.096,299.994 409.5,310.5C 408.076,312.515 407.41,314.848 407.5,317.5C 385.578,379.242 342.578,417.742 278.5,433C 248.403,439.511 219.07,437.178 190.5,426C 176.149,420.317 166.649,410.15 162,395.5C 161.503,393.19 161.337,390.857 161.5,388.5C 161.171,373.324 161.504,358.324 162.5,343.5C 176.306,358.64 192.973,369.307 212.5,375.5C 214.515,376.924 216.848,377.59 219.5,377.5C 273.932,386.698 316.432,368.364 347,322.5C 369.875,277.609 366.875,234.609 338,193.5C 302.81,152.847 258.976,139.013 206.5,152C 194.265,155.781 183.265,161.614 173.5,169.5C 155.684,181.984 142.684,198.318 134.5,218.5C 130.667,225.956 128.333,233.956 127.5,242.5C 126.116,247.944 125.45,253.611 125.5,259.5C 125.5,278.167 125.5,296.833 125.5,315.5C 125.831,341.005 125.498,366.339 124.5,391.5C 99.0186,368.228 82.5186,339.562 75,305.5C 63.7954,249.309 75.4621,198.642 110,153.5C 124,137.433 140.167,124.1 158.5,113.5C 160.027,113.573 161.027,112.906 161.5,111.5C 168.796,107.513 176.463,104.513 184.5,102.5C 187.157,102.065 189.491,101.065 191.5,99.5C 264.744,80.2595 326.577,98.5928 377,154.5C 396.806,179.456 408.973,207.789 413.5,239.5 Z"/></g>
<g><path style="opacity:1" fill="#aacfed" d="M 191.5,99.5 C 189.491,101.065 187.157,102.065 184.5,102.5C 186.32,100.552 188.654,99.5516 191.5,99.5 Z"/></g>
<g><path style="opacity:1" fill="#90bee3" d="M 161.5,111.5 C 161.027,112.906 160.027,113.573 158.5,113.5C 158.973,112.094 159.973,111.427 161.5,111.5 Z"/></g>
<g><path style="opacity:1" fill="#75ace7" d="M 445.5,123.5 C 447.04,125.838 447.706,128.505 447.5,131.5C 446.232,129.095 445.565,126.428 445.5,123.5 Z"/></g>
<g><path style="opacity:1" fill="#fdfefe" d="M 317.5,338.5 C 317.715,340.179 317.048,341.179 315.5,341.5C 304.718,338.763 293.885,336.096 283,333.5C 258.008,343.54 232.842,344.04 207.5,335C 194.915,329.238 184.249,321.071 175.5,310.5C 171.886,304.93 168.553,299.263 165.5,293.5C 158.564,277.219 156.897,260.552 160.5,243.5C 161.924,241.485 162.59,239.152 162.5,236.5C 164.899,227.701 168.899,219.701 174.5,212.5C 182.645,203.352 191.979,195.685 202.5,189.5C 238.669,173.718 272.002,178.218 302.5,203C 330.884,232.752 335.384,265.919 316,302.5C 313.352,306.311 310.852,310.145 308.5,314C 311.785,322.017 314.785,330.184 317.5,338.5 Z"/></g>
<g><path style="opacity:1" fill="#2896f9" d="M 173.5,169.5 C 174.345,171.912 174.345,174.078 173.5,176C 171.423,176.192 169.423,176.692 167.5,177.5C 165.166,180.66 162.166,182.827 158.5,184C 161.993,185.478 162.326,187.478 159.5,190C 168.732,191.611 178.065,191.945 187.5,191C 188.662,190.173 189.829,189.34 191,188.5C 191.5,188.833 192,189.167 192.5,189.5C 191.833,190.167 191.167,190.833 190.5,191.5C 191,191.833 191.5,192.167 192,192.5C 194.338,190.827 196.671,189.16 199,187.5C 199.71,188.973 200.876,189.64 202.5,189.5C 191.979,195.685 182.645,203.352 174.5,212.5C 174.096,211.244 173.429,210.077 172.5,209C 175.134,206.675 177.801,204.341 180.5,202C 170.839,201.5 161.172,201.334 151.5,201.5C 151.66,203.199 151.494,204.866 151,206.5C 148.052,206.253 144.885,205.92 141.5,205.5C 141.215,209.191 140.215,212.691 138.5,216C 139.409,217.789 139.576,219.623 139,221.5C 138.333,222.833 137.667,222.833 137,221.5C 136.667,220.167 136.333,218.833 136,217.5C 135.617,218.056 135.117,218.389 134.5,218.5C 142.684,198.318 155.684,181.984 173.5,169.5 Z"/></g>
<g><path style="opacity:1" fill="#2194fe" d="M 161.5,192.5 C 170.506,192.334 179.506,192.5 188.5,193C 189.526,195.464 188.692,197.298 186,198.5C 184.249,197.191 182.749,197.525 181.5,199.5C 178.972,198.502 178.972,197.669 181.5,197C 180.552,196.517 179.552,196.351 178.5,196.5C 178.5,197.833 178.5,199.167 178.5,200.5C 169.827,200.666 161.16,200.5 152.5,200C 151.663,198.989 151.33,197.822 151.5,196.5C 155.69,197.027 159.023,195.694 161.5,192.5 Z"/></g>
<g><path style="opacity:1" fill="#b5d2ed" d="M 162.5,236.5 C 162.59,239.152 161.924,241.485 160.5,243.5C 160.41,240.848 161.076,238.515 162.5,236.5 Z"/></g>
<g><path style="opacity:1" fill="#2895fa" d="M 276.5,246.5 C 294.073,246.159 298.739,253.659 290.5,269C 281.005,274.996 274.172,272.829 270,262.5C 269.333,259.5 269.333,256.5 270,253.5C 271.694,250.642 273.861,248.309 276.5,246.5 Z"/></g>
<g><path style="opacity:1" fill="#5aa2e5" d="M 127.5,242.5 C 127.55,248.389 126.884,254.056 125.5,259.5C 125.45,253.611 126.116,247.944 127.5,242.5 Z"/></g>
<g><path style="opacity:1" fill="#2895fa" d="M 198.5,246.5 C 211.375,244.55 217.208,249.883 216,262.5C 213.51,269.898 208.344,273.065 200.5,272C 192.878,268.167 190.045,262.001 192,253.5C 193.694,250.642 195.861,248.309 198.5,246.5 Z"/></g>
<g><path style="opacity:1" fill="#2995fa" d="M 237.5,246.5 C 250.375,244.55 256.208,249.883 255,262.5C 252.337,270.419 246.837,273.586 238.5,272C 230.345,266.523 228.512,259.357 233,250.5C 234.667,249.267 236.167,247.933 237.5,246.5 Z"/></g>
<g><path style="opacity:1" fill="#8fbfe8" d="M 413.5,239.5 C 414.995,247.111 415.662,254.944 415.5,263C 415.499,268.344 415.166,273.511 414.5,278.5C 414.633,265.484 414.299,252.484 413.5,239.5 Z"/></g>
<g><path style="opacity:1" fill="#4098ee" d="M 165.5,293.5 C 168.553,299.263 171.886,304.93 175.5,310.5C 174.883,310.611 174.383,310.944 174,311.5C 173.228,310.151 172.061,309.318 170.5,309C 172.017,306.239 171.184,304.406 168,303.5C 167.339,300.054 166.505,296.721 165.5,293.5 Z"/></g>
<g><path style="opacity:1" fill="#6da8e5" d="M 409.5,310.5 C 409.59,313.152 408.924,315.485 407.5,317.5C 407.41,314.848 408.076,312.515 409.5,310.5 Z"/></g>
<g><path style="opacity:1" fill="#76b1e0" d="M 125.5,315.5 C 126.829,341.003 126.829,366.67 125.5,392.5C 124.893,392.376 124.56,392.043 124.5,391.5C 125.498,366.339 125.831,341.005 125.5,315.5 Z"/></g>
<g><path style="opacity:1" fill="#89bae3" d="M 317.5,338.5 C 318.434,339.568 318.768,340.901 318.5,342.5C 317.209,342.737 316.209,342.404 315.5,341.5C 317.048,341.179 317.715,340.179 317.5,338.5 Z"/></g>
<g><path style="opacity:1" fill="#b2d3ea" d="M 162.5,343.5 C 161.504,358.324 161.171,373.324 161.5,388.5C 160.174,373.328 160.174,357.995 161.5,342.5C 162.107,342.624 162.44,342.957 162.5,343.5 Z"/></g>
<g><path style="opacity:1" fill="#6cabe8" d="M 212.5,375.5 C 215.152,375.41 217.485,376.076 219.5,377.5C 216.848,377.59 214.515,376.924 212.5,375.5 Z"/></g>
<g><path style="opacity:1" fill="#63a6ed" d="M 101.5,473.5 C 97.8512,472.733 94.5178,471.4 91.5,469.5C 92.9305,469.579 94.2638,469.246 95.5,468.5C 97.2842,470.517 99.2842,472.184 101.5,473.5 Z"/></g>
<g><path style="opacity:1" fill="#2593f7" d="M 104.5,473.5 C 112.437,475.456 120.437,475.79 128.5,474.5C 206.681,476.405 284.681,477.072 362.5,476.5C 281.334,477.666 200.001,477.832 118.5,477C 113.535,476.513 108.868,475.346 104.5,473.5 Z"/></g>
</svg>
