<?xml version="1.0" encoding="UTF-8"?>
<!DOCTYPE svg PUBLIC "-//W3C//DTD SVG 1.1//EN" "http://www.w3.org/Graphics/SVG/1.1/DTD/svg11.dtd">
<svg xmlns="http://www.w3.org/2000/svg" version="1.1" width="1080px" height="540px" style="shape-rendering:geometricPrecision; text-rendering:geometricPrecision; image-rendering:optimizeQuality; fill-rule:evenodd; clip-rule:evenodd" xmlns:xlink="http://www.w3.org/1999/xlink">
<g><path style="opacity:1" fill="#fefefe" d="M -0.5,-0.5 C 359.5,-0.5 719.5,-0.5 1079.5,-0.5C 1079.5,179.5 1079.5,359.5 1079.5,539.5C 719.5,539.5 359.5,539.5 -0.5,539.5C -0.5,359.5 -0.5,179.5 -0.5,-0.5 Z"/></g>
<g><path style="opacity:1" fill="#2295fd" d="M 37.5,394.5 C 38.2216,394.082 38.7216,393.416 39,392.5C 39.1705,394.715 39.8372,396.715 41,398.5C 42.2692,397.095 42.7692,395.429 42.5,393.5C 51.5,393.5 60.5,393.5 69.5,393.5C 69.6904,397.923 70.3571,402.256 71.5,406.5C 76.5111,406.666 81.5111,406.499 86.5,406C 87.3366,404.989 87.67,403.822 87.5,402.5C 92.3137,402.22 96.9804,402.886 101.5,404.5C 96.732,405.184 95.3986,407.684 97.5,412C 106.494,412.5 115.494,412.666 124.5,412.5C 124.5,413.5 124.5,414.5 124.5,415.5C 127.518,415.665 130.518,415.498 133.5,415C 133.167,414.667 132.833,414.333 132.5,414C 134.353,412.331 136.353,412.165 138.5,413.5C 138.291,414.086 137.957,414.586 137.5,415C 138.793,415.49 140.127,415.657 141.5,415.5C 141.5,414.5 141.5,413.5 141.5,412.5C 149.191,412.308 156.858,412.642 164.5,413.5C 165.833,413.333 167.167,413.167 168.5,413C 167.16,410.821 167.493,410.321 169.5,411.5C 179.577,420.72 191.244,427.22 204.5,431C 260.908,442.921 311.574,430.921 356.5,395C 390.298,365.576 409.465,328.409 414,283.5C 419.461,211.435 392.294,155.601 332.5,116C 286.81,90.7633 238.81,85.43 188.5,100C 129.926,120.91 92.4259,161.41 76,221.5C 64.3143,276.212 74.1476,326.546 105.5,372.5C 105.5,373.5 105.5,374.5 105.5,375.5C 104.167,375.5 102.833,375.5 101.5,375.5C 103.161,379.082 101.827,380.748 97.5,380.5C 97.5,381.5 97.5,382.5 97.5,383.5C 93.7604,383.759 90.0938,383.426 86.5,382.5C 71.878,383.317 57.2113,383.817 42.5,384C 60.91,384.916 79.2433,385.082 97.5,384.5C 97.5,387.167 97.5,389.833 97.5,392.5C 92.8215,392.666 88.1548,392.499 83.5,392C 80.6526,388.787 77.3192,388.121 73.5,390C 74.8333,390.667 74.8333,391.333 73.5,392C 63.1667,392.667 52.8333,392.667 42.5,392C 41.8333,390.333 41.1667,388.667 40.5,387C 40.2094,380.247 40.5428,373.414 41.5,366.5C 59.5031,366.667 77.5031,366.5 95.5,366C 77.8333,365.667 60.1667,365.333 42.5,365C 41.565,362.619 41.2317,360.119 41.5,357.5C 101.5,356.833 101.5,356.167 41.5,355.5C 40.7416,346.671 40.7416,338.004 41.5,329.5C 89.5,329.167 89.5,328.833 41.5,328.5C 41.5,327.167 41.5,325.833 41.5,324.5C 40.5,324.5 39.5,324.5 38.5,324.5C 37.4962,269.177 37.1628,207.177 37.5,138.5C 43.4128,104.076 62.7461,80.5765 95.5,68C 100.543,66.8225 105.543,65.4892 110.5,64C 192.812,62.3586 275.146,62.0253 357.5,63C 392.646,63.5761 419.813,78.4094 439,107.5C 444.541,117.124 447.875,127.457 449,138.5C 449.667,225.167 449.667,311.833 449,398.5C 439.224,445.608 410.39,471.774 362.5,477C 281.167,477.667 199.833,477.667 118.5,477C 81.6115,471.775 56.1115,451.942 42,417.5C 39.4237,410.042 37.9237,402.375 37.5,394.5 Z"/></g>
<g><path style="opacity:1" fill="#fdfefe" d="M 169.5,411.5 C 164.459,404.711 161.792,397.044 161.5,388.5C 161.171,373.324 161.504,358.324 162.5,343.5C 198.581,379.967 240.915,389.467 289.5,372C 344.858,345.461 368.358,301.628 360,240.5C 347.275,193.441 317.441,163.275 270.5,150C 214.935,139.393 171.768,157.56 141,204.5C 132.592,218.724 127.592,234.057 126,250.5C 125.5,272.164 125.333,293.831 125.5,315.5C 125.831,341.005 125.498,366.339 124.5,391.5C 117.806,385.473 111.473,379.14 105.5,372.5C 74.1476,326.546 64.3143,276.212 76,221.5C 92.4259,161.41 129.926,120.91 188.5,100C 238.81,85.43 286.81,90.7633 332.5,116C 392.294,155.601 419.461,211.435 414,283.5C 409.465,328.409 390.298,365.576 356.5,395C 311.574,430.921 260.908,442.921 204.5,431C 191.244,427.22 179.577,420.72 169.5,411.5 Z"/></g>
<g><path style="opacity:1" fill="#030303" d="M 803.5,205.5 C 810.574,205.161 817.574,205.661 824.5,207C 825.667,208.167 826.833,209.333 828,210.5C 829.438,218.723 829.938,227.057 829.5,235.5C 839.073,233.592 848.74,233.092 858.5,234C 872.904,237.071 881.071,245.904 883,260.5C 883.5,280.164 883.667,299.831 883.5,319.5C 876.189,320.469 868.856,320.636 861.5,320C 857.512,318.552 855.012,315.719 854,311.5C 853.667,295.167 853.333,278.833 853,262.5C 850.406,257.866 846.406,255.533 841,255.5C 837.292,255.802 833.792,256.802 830.5,258.5C 829.5,278.822 829.167,299.156 829.5,319.5C 822.202,320.559 814.869,320.726 807.5,320C 803.835,318.332 801.668,315.499 801,311.5C 800.5,276.502 800.333,241.502 800.5,206.5C 801.791,206.737 802.791,206.404 803.5,205.5 Z"/></g>
<g><path style="opacity:1" fill="#2395fc" d="M 37.5,138.5 C 37.1628,207.177 37.4962,269.177 38.5,324.5C 39.5,324.5 40.5,324.5 41.5,324.5C 41.5,325.833 41.5,327.167 41.5,328.5C 89.5,328.833 89.5,329.167 41.5,329.5C 40.7416,338.004 40.7416,346.671 41.5,355.5C 101.5,356.167 101.5,356.833 41.5,357.5C 41.2317,360.119 41.565,362.619 42.5,365C 60.1667,365.333 77.8333,365.667 95.5,366C 77.5031,366.5 59.5031,366.667 41.5,366.5C 40.5428,373.414 40.2094,380.247 40.5,387C 41.1667,388.667 41.8333,390.333 42.5,392C 52.8333,392.667 63.1667,392.667 73.5,392C 74.8333,391.333 74.8333,390.667 73.5,390C 77.3192,388.121 80.6526,388.787 83.5,392C 88.1548,392.499 92.8215,392.666 97.5,392.5C 97.5,389.833 97.5,387.167 97.5,384.5C 79.2433,385.082 60.91,384.916 42.5,384C 57.2113,383.817 71.878,383.317 86.5,382.5C 90.0938,383.426 93.7604,383.759 97.5,383.5C 97.5,382.5 97.5,381.5 97.5,380.5C 101.827,380.748 103.161,379.082 101.5,375.5C 102.833,375.5 104.167,375.5 105.5,375.5C 105.5,374.5 105.5,373.5 105.5,372.5C 111.473,379.14 117.806,385.473 124.5,391.5C 124.56,392.043 124.893,392.376 125.5,392.5C 126.829,366.67 126.829,341.003 125.5,315.5C 125.333,293.831 125.5,272.164 126,250.5C 127.592,234.057 132.592,218.724 141,204.5C 171.768,157.56 214.935,139.393 270.5,150C 317.441,163.275 347.275,193.441 360,240.5C 368.358,301.628 344.858,345.461 289.5,372C 240.915,389.467 198.581,379.967 162.5,343.5C 162.44,342.957 162.107,342.624 161.5,342.5C 160.174,357.995 160.174,373.328 161.5,388.5C 161.792,397.044 164.459,404.711 169.5,411.5C 167.493,410.321 167.16,410.821 168.5,413C 167.167,413.167 165.833,413.333 164.5,413.5C 156.858,412.642 149.191,412.308 141.5,412.5C 141.5,413.5 141.5,414.5 141.5,415.5C 140.127,415.657 138.793,415.49 137.5,415C 137.957,414.586 138.291,414.086 138.5,413.5C 136.353,412.165 134.353,412.331 132.5,414C 132.833,414.333 133.167,414.667 133.5,415C 130.518,415.498 127.518,415.665 124.5,415.5C 124.5,414.5 124.5,413.5 124.5,412.5C 115.494,412.666 106.494,412.5 97.5,412C 95.3986,407.684 96.732,405.184 101.5,404.5C 96.9804,402.886 92.3137,402.22 87.5,402.5C 87.67,403.822 87.3366,404.989 86.5,406C 81.5111,406.499 76.5111,406.666 71.5,406.5C 70.3571,402.256 69.6904,397.923 69.5,393.5C 60.5,393.5 51.5,393.5 42.5,393.5C 42.7692,395.429 42.2692,397.095 41,398.5C 39.8372,396.715 39.1705,394.715 39,392.5C 38.7216,393.416 38.2216,394.082 37.5,394.5C 36.1667,309.167 36.1667,223.833 37.5,138.5 Z"/></g>
<g><path style="opacity:1" fill="#fdfefe" d="M 232.5,180.5 C 269.418,177.877 297.918,191.877 318,222.5C 331.1,249.456 330.433,276.123 316,302.5C 313.352,306.311 310.852,310.145 308.5,314C 311.286,321.476 314.12,328.976 317,336.5C 317.494,338.134 317.66,339.801 317.5,341.5C 305.988,339.081 294.488,336.414 283,333.5C 259.913,342.73 236.413,343.897 212.5,337C 178.278,322.591 160.278,296.757 158.5,259.5C 161.307,221.751 180.64,196.584 216.5,184C 221.905,182.504 227.239,181.337 232.5,180.5 Z"/></g>
<g><path style="opacity:1" fill="#040404" d="M 1024.5,226.5 C 1024.5,231.833 1024.5,237.167 1024.5,242.5C 1032.17,242.5 1039.83,242.5 1047.5,242.5C 1051.7,249.524 1051.37,256.358 1046.5,263C 1039.25,264.391 1031.92,264.891 1024.5,264.5C 1024.33,274.172 1024.5,283.839 1025,293.5C 1025.83,295.667 1027.33,297.167 1029.5,298C 1035.2,298.456 1040.87,298.456 1046.5,298C 1052.51,309.315 1049.51,316.981 1037.5,321C 1030.17,321.667 1022.83,321.667 1015.5,321C 1003.47,317.788 996.972,309.955 996,297.5C 995.5,271.169 995.333,244.835 995.5,218.5C 1002.47,217.492 1009.47,217.325 1016.5,218C 1021.33,218.85 1024,221.684 1024.5,226.5 Z"/></g>
<g><path style="opacity:1" fill="#020202" d="M 502.5,233.5 C 515.869,231.719 528.369,234.052 540,240.5C 544.774,238.196 549.608,236.029 554.5,234C 562.5,233.333 570.5,233.333 578.5,234C 591.45,237.283 599.283,245.45 602,258.5C 602.5,278.831 602.667,299.164 602.5,319.5C 595.189,320.469 587.856,320.636 580.5,320C 575.941,318.073 573.441,314.573 573,309.5C 572.667,293.167 572.333,276.833 572,260.5C 565.984,254.22 559.651,253.887 553,259.5C 552.5,279.497 552.333,299.497 552.5,319.5C 545.189,320.469 537.856,320.636 530.5,320C 526.835,318.332 524.668,315.499 524,311.5C 523.667,294.833 523.333,278.167 523,261.5C 517.615,254.881 511.282,253.881 504,258.5C 503.5,278.831 503.333,299.164 503.5,319.5C 496.189,320.469 488.856,320.636 481.5,320C 478.333,318.833 476.167,316.667 475,313.5C 474.833,302.833 474.667,292.167 474.5,281.5C 474.354,270.074 474.854,258.74 476,247.5C 483.576,240.297 492.41,235.63 502.5,233.5 Z"/></g>
<g><path style="opacity:1" fill="#030303" d="M 747.5,233.5 C 754.841,233.334 762.174,233.5 769.5,234C 783.522,237.859 787.189,246.026 780.5,258.5C 777.374,259.419 774.374,258.919 771.5,257C 751.058,253.45 741.225,261.95 742,282.5C 744.698,293.537 751.698,298.87 763,298.5C 768.248,298.751 773.248,297.751 778,295.5C 785.441,299.587 787.441,305.587 784,313.5C 780.846,317.661 776.679,320.161 771.5,321C 751.683,324.985 734.849,319.818 721,305.5C 712.951,293.675 710.284,280.675 713,266.5C 717.567,248.096 729.067,237.096 747.5,233.5 Z"/></g>
<g><path style="opacity:1" fill="#020202" d="M 919.5,233.5 C 931.21,233.168 942.876,233.668 954.5,235C 966.052,238.01 973.552,245.176 977,256.5C 977.667,273.5 977.667,290.5 977,307.5C 974.448,311.719 970.948,314.886 966.5,317C 946.473,324.948 926.806,324.281 907.5,315C 896.725,304.859 894.558,293.026 901,279.5C 904.536,274.98 909.036,271.814 914.5,270C 925.775,268.007 937.108,266.507 948.5,265.5C 948.662,263.473 948.495,261.473 948,259.5C 945.293,257.064 942.127,255.564 938.5,255C 928.091,253.79 918.091,255.29 908.5,259.5C 903.004,255.493 901.171,250.16 903,243.5C 904.046,241.91 905.213,240.41 906.5,239C 910.741,236.651 915.075,234.818 919.5,233.5 Z"/></g>
<g><path style="opacity:1" fill="#030303" d="M 625.5,233.5 C 635.236,232.113 642.069,235.78 646,244.5C 650.819,260.772 655.485,277.106 660,293.5C 666.424,275.225 671.424,256.558 675,237.5C 683.075,232.432 691.242,232.265 699.5,237C 700.701,237.903 701.535,239.069 702,240.5C 698.473,275.409 686.807,307.409 667,336.5C 662.613,342.232 657.113,346.398 650.5,349C 639.354,352.336 631.52,348.836 627,338.5C 628.042,333.074 631.209,328.907 636.5,326C 640.393,322.61 643.727,318.777 646.5,314.5C 641.286,311.416 637.452,307.083 635,301.5C 626.498,281.993 619.998,261.826 615.5,241C 615.785,239.11 616.785,237.777 618.5,237C 620.925,235.787 623.259,234.621 625.5,233.5 Z"/></g>
<g><path style="opacity:1" fill="#898989" d="M 1024.5,226.5 C 1025.49,231.305 1025.82,236.305 1025.5,241.5C 1033.02,241.175 1040.35,241.508 1047.5,242.5C 1039.83,242.5 1032.17,242.5 1024.5,242.5C 1024.5,237.167 1024.5,231.833 1024.5,226.5 Z"/></g>
<g><path style="opacity:1" fill="#2895fa" d="M 276.5,246.5 C 294.073,246.159 298.739,253.659 290.5,269C 281.005,274.996 274.172,272.829 270,262.5C 269.333,259.5 269.333,256.5 270,253.5C 271.694,250.642 273.861,248.309 276.5,246.5 Z"/></g>
<g><path style="opacity:1" fill="#2895fa" d="M 198.5,246.5 C 211.375,244.55 217.208,249.883 216,262.5C 213.51,269.898 208.344,273.065 200.5,272C 192.878,268.167 190.045,262.001 192,253.5C 193.694,250.642 195.861,248.309 198.5,246.5 Z"/></g>
<g><path style="opacity:1" fill="#2995fa" d="M 237.5,246.5 C 250.375,244.55 256.208,249.883 255,262.5C 252.337,270.419 246.837,273.586 238.5,272C 230.345,266.523 228.512,259.357 233,250.5C 234.667,249.267 236.167,247.933 237.5,246.5 Z"/></g>
<g><path style="opacity:1" fill="#f8f8f8" d="M 941.5,285.5 C 943.833,285.5 946.167,285.5 948.5,285.5C 948.5,289.833 948.5,294.167 948.5,298.5C 945.305,300.03 941.805,300.696 938,300.5C 931.294,301.908 927.128,299.408 925.5,293C 926.558,288.948 929.225,286.614 933.5,286C 936.146,285.503 938.813,285.336 941.5,285.5 Z"/></g>
<g><path style="opacity:1" fill="#9c9c9c" d="M 941.5,285.5 C 943.948,284.527 946.615,284.194 949.5,284.5C 949.819,289.363 949.486,294.03 948.5,298.5C 948.5,294.167 948.5,289.833 948.5,285.5C 946.167,285.5 943.833,285.5 941.5,285.5 Z"/></g>
<g><path style="opacity:1" fill="#76b1e0" d="M 125.5,315.5 C 126.829,341.003 126.829,366.67 125.5,392.5C 124.893,392.376 124.56,392.043 124.5,391.5C 125.498,366.339 125.831,341.005 125.5,315.5 Z"/></g>
<g><path style="opacity:1" fill="#b2d3ea" d="M 162.5,343.5 C 161.504,358.324 161.171,373.324 161.5,388.5C 160.174,373.328 160.174,357.995 161.5,342.5C 162.107,342.624 162.44,342.957 162.5,343.5 Z"/></g>
</svg>
